<?xml version="1.0" standalone="no"?>
<!DOCTYPE svg PUBLIC "-//W3C//DTD SVG 20010904//EN"
 "http://www.w3.org/TR/2001/REC-SVG-20010904/DTD/svg10.dtd">
<svg version="1.0" xmlns="http://www.w3.org/2000/svg"
 width="100.000000pt" height="100.000000pt" viewBox="0 0 100.000000 100.000000"
 preserveAspectRatio="xMidYMid meet">
<metadata>
Created by potrace 1.14, written by Peter Selinger 2001-2017
</metadata>
<g transform="translate(0.000000,100.000000) scale(0.100000,-0.100000)"
fill="#000000" stroke="none">
<path d="M465 958 c-4 -18 -41 -181 -82 -363 -97 -431 -99 -442 -81 -485 8
-19 14 -39 14 -45 -2 -16 -216 -13 -233 3 -40 41 5 68 82 48 47 -12 56 -12 66
0 17 21 3 31 -67 47 -72 17 -112 6 -131 -35 -18 -39 -5 -85 28 -106 30 -19
408 -19 420 0 12 18 -7 35 -40 36 -59 1 -101 48 -101 109 1 15 38 190 83 388
l82 361 40 -23 c56 -32 130 -31 179 2 l36 24 5 -22 c17 -71 75 -331 80 -354 3
-15 22 -104 44 -198 39 -174 42 -216 13 -249 -20 -22 -79 -49 -91 -41 -14 8
-23 -26 -11 -40 13 -16 73 -4 109 22 39 29 70 96 64 140 -3 21 -22 115 -43
208 -22 94 -58 253 -80 355 -23 102 -45 198 -49 215 -9 38 -32 43 -64 12 -28
-29 -75 -53 -97 -51 -8 1 -24 2 -36 3 -11 0 -39 17 -61 36 -52 44 -69 44 -78
3z"/>
<path d="M540 750 c-18 -11 -4 -42 17 -38 10 2 19 10 21 19 4 19 -19 31 -38
19z"/>
<path d="M694 746 c-7 -19 3 -36 22 -36 10 0 14 8 12 22 -4 26 -26 36 -34 14z"/>
<path d="M450 440 c-12 -8 -10 -29 15 -157 16 -81 30 -150 30 -153 1 -3 5 -24
9 -48 11 -58 33 -70 129 -70 65 0 81 4 97 20 16 17 36 103 66 276 3 15 7 34 9
42 15 50 15 88 1 93 -8 3 -19 0 -24 -6 -6 -7 -26 -93 -46 -191 -20 -99 -42
-183 -48 -188 -26 -15 -32 16 -33 150 0 141 -5 165 -30 155 -12 -4 -15 -32
-15 -148 0 -106 -3 -145 -13 -154 -23 -19 -44 9 -57 79 -7 36 -13 72 -15 80
-2 8 -11 57 -21 108 -20 103 -31 127 -54 112z"/>
</g>
</svg>
